<svg width="58" height="58" viewBox="0 0 58 58" fill="none" xmlns="http://www.w3.org/2000/svg">
<path d="M29 57.0938C44.5195 57.0938 57.0938 44.5195 57.0938 29C57.0938 13.4805 44.5195 0.90625 29 0.90625C13.4805 0.90625 0.90625 13.4805 0.90625 29C0.90625 44.5195 13.4805 57.0938 29 57.0938ZM30.8125 19.9375C30.8125 18.9406 31.6281 18.125 32.625 18.125H38.0625C39.0594 18.125 39.875 18.9406 39.875 19.9375V38.0625C39.875 39.0594 39.0594 39.875 38.0625 39.875H32.625C31.6281 39.875 30.8125 39.0594 30.8125 38.0625V19.9375ZM18.125 19.9375C18.125 18.9406 18.9406 18.125 19.9375 18.125H25.375C26.3719 18.125 27.1875 18.9406 27.1875 19.9375V38.0625C27.1875 39.0594 26.3719 39.875 25.375 39.875H19.9375C18.9406 39.875 18.125 39.0594 18.125 38.0625V19.9375Z" fill="#F8F8F8"/>
</svg>
